<?xml version="1.0" encoding="UTF-8"?>
<svg xmlns="http://www.w3.org/2000/svg" xmlns:xlink="http://www.w3.org/1999/xlink" width="21pt" height="21pt" viewBox="0 0 21 21" version="1.1">
<g id="surface1">
<path style=" stroke:none;fill-rule:evenodd;fill:rgb(100%,100%,100%);fill-opacity:1;" d="M 17.882812 12.75 C 14.363281 13.34375 11.027344 10.96875 10.433594 7.449219 C 9.839844 3.925781 12.214844 0.59375 15.734375 0 C 15.734375 -1.1875 16.695312 -2.144531 17.882812 -2.144531 C 19.070312 -2.144531 20.027344 -1.1875 20.027344 0 C 19.1875 -0.484375 18.777344 -1.476562 19.03125 -2.414062 C 19.28125 -3.351562 20.132812 -4.003906 21.101562 -4.003906 C 22.070312 -4.003906 22.921875 -3.351562 23.171875 -2.414062 C 23.425781 -1.476562 23.015625 -0.484375 22.175781 0 Z M 17.882812 4.882812 C 16.535156 5.472656 14.960938 4.863281 14.371094 3.511719 C 13.777344 2.164062 14.390625 0.59375 15.738281 0 C 15.738281 -1.1875 16.695312 -2.144531 17.882812 -2.144531 C 19.070312 -2.144531 20.027344 -1.1875 20.027344 0 C 19.1875 -0.484375 18.78125 -1.472656 19.03125 -2.410156 C 19.28125 -3.347656 20.132812 -4 21.101562 -4 C 22.070312 -4 22.921875 -3.347656 23.171875 -2.410156 C 23.425781 -1.472656 23.015625 -0.484375 22.175781 0 Z M 10.015625 20.617188 C 4.320312 21.210938 -0.777344 17.074219 -1.367188 11.382812 C -1.960938 5.6875 2.175781 0.59375 7.867188 0 C 7.867188 -1.1875 8.828125 -2.144531 10.015625 -2.144531 C 11.199219 -2.144531 12.160156 -1.1875 12.160156 0 C 11.320312 -0.484375 10.910156 -1.472656 11.164062 -2.410156 C 11.414062 -3.347656 12.261719 -4 13.234375 -4 C 14.203125 -4 15.050781 -3.347656 15.304688 -2.410156 C 15.554688 -1.472656 15.144531 -0.484375 14.304688 0 Z M 10.015625 12.75 C 6.492188 11.566406 4.601562 7.75 5.785156 4.230469 C 6.96875 0.707031 10.785156 -1.183594 14.304688 0 C 15.492188 0 16.453125 0.960938 16.453125 2.144531 C 15.269531 2.144531 14.308594 1.183594 14.308594 0 C 14.308594 -1.1875 15.269531 -2.144531 16.453125 -2.144531 C 17.640625 -2.144531 18.597656 -1.183594 18.597656 0 Z M 10.015625 4.882812 C 8.667969 2.511719 9.496094 -0.503906 11.867188 -1.851562 C 14.238281 -3.199219 17.25 -2.371094 18.597656 0 C 19.785156 0 20.746094 0.960938 20.746094 2.144531 C 19.5625 2.144531 18.601562 1.183594 18.601562 0 C 18.601562 -1.183594 19.5625 -2.140625 20.746094 -2.140625 C 21.929688 -2.140625 22.890625 -1.183594 22.890625 0 Z M 2.144531 20.617188 C -3.546875 14.890625 -3.519531 5.628906 2.210938 -0.0625 C 7.9375 -5.757812 17.199219 -5.730469 22.890625 0 C 22.890625 -1.1875 23.851562 -2.144531 25.035156 -2.144531 C 26.222656 -2.144531 27.183594 -1.1875 27.183594 0 C 26.34375 -0.484375 25.933594 -1.472656 26.183594 -2.410156 C 26.4375 -3.347656 27.285156 -4 28.257812 -4 C 29.226562 -4 30.074219 -3.347656 30.328125 -2.410156 C 30.578125 -1.472656 30.167969 -0.484375 29.328125 0 Z M 2.144531 12.75 C -1.375 5.242188 1.855469 -3.695312 9.363281 -7.214844 C 16.867188 -10.738281 25.808594 -7.507812 29.328125 0 C 29.328125 -1.1875 30.289062 -2.144531 31.476562 -2.144531 C 32.660156 -2.144531 33.621094 -1.1875 33.621094 0 C 32.78125 -0.484375 32.371094 -1.476562 32.621094 -2.414062 C 32.875 -3.351562 33.722656 -4.003906 34.695312 -4.003906 C 35.664062 -4.003906 36.515625 -3.351562 36.765625 -2.414062 C 37.019531 -1.476562 36.609375 -0.484375 35.769531 0 Z M 2.144531 4.882812 C 0.796875 -4.402344 7.230469 -13.023438 16.515625 -14.371094 C 25.800781 -15.71875 34.421875 -9.285156 35.769531 0 C 0 1.546875 0.960938 0.589844 2.144531 0.589844 C 3.332031 0.589844 4.292969 1.546875 4.292969 2.734375 C 3.195312 2.691406 2.3125 1.828125 2.238281 0.734375 C 2.164062 -0.359375 2.929688 -1.328125 4.007812 -1.519531 C 5.085938 -1.707031 6.136719 -1.054688 6.4375 0 Z M 17.882812 16.324219 C 19.070312 16.324219 20.027344 17.285156 20.027344 18.472656 C 20.027344 17.289062 20.988281 16.328125 22.171875 16.328125 C 23.355469 16.328125 24.316406 17.285156 24.316406 18.46875 C 24.316406 19.65625 23.359375 20.613281 22.175781 20.617188 C 22.175781 19.429688 23.132812 18.46875 24.320312 18.46875 Z M 17.882812 16.324219 "/>
</g>
</svg>
